<svg xmlns="http://www.w3.org/2000/svg" viewBox="0 0 331 76" role="img" aria-label="Smythe">
  <style>
    .ink { fill: #23221e; }
    @media (prefers-color-scheme: dark) { .ink { fill: #ece7da; } }
  </style>
  <path class="ink" transform="translate(20.00,58.0) scale(0.052000,-0.052000)" d="M264.92303466796875 714Q282.86578369140625 714 307.3559265136719 712.0Q331.8460693359375 710 356.6313781738281 706.5Q381.41668701171875 703 400.9354553222656 699.5Q420.4542236328125 696 428.77801513671875 692L422.30218505859375 568.04833984375H412.9783935546875Q412.9783935546875 618.3148803710938 376.9023742675781 647.9195251464844Q340.82635498046875 677.524169921875 285.083984375 677.524169921875Q228.1412353515625 677.524169921875 193.49365234375 646.5858764648438Q158.8460693359375 615.6475830078125 157.87469482421875 572.5617065429688Q156.9033203125 548.0572509765625 171.55535888671875 524.3381042480469Q186.2073974609375 500.61895751953125 213.740478515625 480.2379150390625L407.5025634765625 328.99810791015625Q445.921142578125 301.969482421875 463.0445556640625 264.788818359375Q480.16796875 227.608154296875 478.54901123046875 183.68511962890625Q476.282470703125 92.91412353515625 415.421142578125 39.457061767578125Q354.559814453125 -14 250.427490234375 -14Q215.4185791015625 -14 178.22360229492188 -7.704833984375Q141.02862548828125 -1.40966796875 109.5572509765625 11.7379150390625Q78.08587646484375 24.885498046875 58.73345947265625 44.2379150390625Q53.14312744140625 63.15203857421875 53.79071044921875 91.03753662109375Q54.43829345703125 118.92303466796875 60.866729736328125 148.337158203125Q67.295166015625 177.75128173828125 77.20928955078125 199.427490234375H86.20928955078125Q81.85687255859375 148.10369873046875 102.1234130859375 107.1895751953125Q122.38995361328125 66.27545166015625 161.90872192382812 43.699432373046875Q201.427490234375 21.1234130859375 253.8460693359375 22.475830078125Q314.35052490234375 24.50445556640625 352.2315673828125 58.223602294921875Q390.11260986328125 91.9427490234375 390.11260986328125 144.8193359375Q390.11260986328125 174.79071044921875 375.4176330566406 199.10018920898438Q360.72265625 223.40966796875 329.4185791015625 243.32379150390625L146.80853271484375 388.29705810546875Q104.1806640625 417.59222412109375 85.86672973632812 458.3775329589844Q67.55279541015625 499.162841796875 70.4669189453125 541.7620849609375Q72.73345947265625 588.9427490234375 95.97137451171875 628.2665405273438Q119.20928955078125 667.59033203125 161.94720458984375 690.795166015625Q204.68511962890625 714 264.92303466796875 714ZM429.42559814453125 704 428.4542236328125 683H330.11260986328125V704Z"/>
  <path class="ink" transform="translate(61.56,58.0) scale(0.052000,-0.052000)" d="M761.72265625 714 769.72265625 624.6583862304688 494.114501953125 89.295166015625Q494.114501953125 89.295166015625 485.4812316894531 71.97137451171875Q476.84796142578125 54.6475830078125 468.0384826660156 30.17620849609375Q459.22900390625 5.704833984375 457.524169921875 -17.2379150390625H447.84796142578125L420.24871826171875 58.7137451171875ZM113.04833984375 73V0H2.04833984375V10Q3.04833984375 10 10.54833984375 10.0Q18.04833984375 10 18.04833984375 10Q45.04833984375 10 66.04833984375 26.5Q87.04833984375 43 91.04833984375 73ZM150.14312744140625 57Q150.14312744140625 56 150.14312744140625 55.0Q150.14312744140625 54 150.14312744140625 52Q150.14312744140625 36 161.64312744140625 22.5Q173.14312744140625 9 189.14312744140625 9H204.4669189453125V0H143.14312744140625V57ZM170.25762939453125 714H179.933837890625L208.02862548828125 632.982177734375L144.49554443359375 0H82.4007568359375ZM179.933837890625 714 488.656494140625 136.9783935546875 447.84796142578125 -17.2379150390625 157.37213134765625 535.2989501953125ZM770.72265625 714 861.5795288085938 0H739.5438842773438L686.8104248046875 527.9662475585938L761.72265625 714ZM830.9319458007812 73H852.2557373046875Q857.2557373046875 43 878.0938415527344 26.5Q898.9319458007812 10 925.2557373046875 10Q925.2557373046875 10 933.0938415527344 10.0Q940.9319458007812 10 941.2557373046875 10V0H830.9319458007812ZM733.8963012695312 57H740.8963012695312V0H679.572509765625V9H694.8963012695312Q711.572509765625 9 722.7344055175781 22.5Q733.8963012695312 36 733.8963012695312 52Q733.8963012695312 54 733.8963012695312 55.0Q733.8963012695312 56 733.8963012695312 57Z"/>
  <path class="ink" transform="translate(124.60,58.0) scale(0.052000,-0.052000)" d="M183.67431640625 699 384.2073974609375 330.114501953125 288.753173828125 306.44720458984375 52.343505859375 699ZM393.67431640625 322V0H283.343505859375V322ZM562.608154296875 699H632.67431640625L384.7315673828125 301.6475830078125L340.9605712890625 312ZM521.608154296875 628Q530.2843627929688 642 526.3074907575335 656.5Q522.3306187220982 671 511.3942206246512 680.5Q500.45782252720426 690 486.5387704031808 690Q486.5387704031808 690 480.5734623500279 690.0Q474.608154296875 690 474.608154296875 690V700H705.3505249023438V690H691.3505249023438Q660.3505249023438 690 633.1886291503906 672.0Q606.0267333984375 654 590.3505249023438 631ZM222.3218994140625 628 92.66729736328125 631Q78.66729736328125 654 51.66729736328125 672.0Q24.66729736328125 690 -7.33270263671875 690H-21.33270263671875V700H269.99810791015625V690Q269.99810791015625 690 263.6600036621094 690.0Q257.3218994140625 690 257.3218994140625 690Q235.16360134548611 690 223.58085462782117 669.5Q211.99810791015625 649 222.3218994140625 628ZM285.66729736328125 73V0H206.343505859375V10Q206.343505859375 10 212.343505859375 10.0Q218.343505859375 10 219.343505859375 10Q245.343505859375 10 263.843505859375 28.5Q282.343505859375 47 283.343505859375 73ZM390.67431640625 73H393.67431640625Q393.67431640625 47 412.67431640625 28.5Q431.67431640625 10 457.67431640625 10Q457.67431640625 10 463.67431640625 10.0Q469.67431640625 10 469.67431640625 10V0H390.67431640625Z"/>
  <path class="ink" transform="translate(174.11,58.0) scale(0.052000,-0.052000)" d="M377.6170654296875 697V0H267.2862548828125V697ZM628.1412353515625 701V664.524169921875H16.7620849609375V701ZM628.1412353515625 667.524169921875V567.0966796875L618.1412353515625 568.0966796875V581.8587646484375Q618.1412353515625 618.1914672851562 595.2986755371094 640.8578186035156Q572.4561157226562 663.524169921875 536.475830078125 664.524169921875V667.524169921875ZM628.1412353515625 719V690L506.1412353515625 701Q528.1412353515625 701 552.6412353515625 704.0Q577.1412353515625 707 598.1412353515625 711.0Q619.1412353515625 715 628.1412353515625 719ZM270.2862548828125 73V0H190.2862548828125V10Q190.2862548828125 10 196.7862548828125 10.0Q203.2862548828125 10 203.2862548828125 10Q229.2862548828125 10 247.7862548828125 28.5Q266.2862548828125 47 267.2862548828125 73ZM374.6170654296875 73H377.6170654296875Q378.6170654296875 47 397.1170654296875 28.5Q415.6170654296875 10 441.6170654296875 10Q441.6170654296875 10 448.1170654296875 10.0Q454.6170654296875 10 454.6170654296875 10V0H374.6170654296875ZM108.427490234375 667.524169921875V664.524169921875Q71.77099609375 663.524169921875 49.26654052734375 640.8578186035156Q26.7620849609375 618.1914672851562 26.7620849609375 581.8587646484375V568.0966796875L16.7620849609375 567.0966796875V667.524169921875ZM16.7620849609375 719Q26.7620849609375 715 47.2620849609375 711.0Q67.7620849609375 707 92.7620849609375 704.0Q117.7620849609375 701 138.7620849609375 701L16.7620849609375 690Z"/>
  <path class="ink" transform="translate(221.60,58.0) scale(0.052000,-0.052000)" d="M711.6170654296875 700V0H601.2862548828125V700ZM237.6170654296875 700V0H127.2862548828125V700ZM610.2862548828125 365.5330810546875V329.0572509765625H227.6170654296875V365.5330810546875ZM130.2862548828125 73V0H50.2862548828125V10Q50.2862548828125 10 56.7862548828125 10.0Q63.2862548828125 10 63.2862548828125 10Q89.2862548828125 10 107.7862548828125 28.5Q126.2862548828125 47 127.2862548828125 73ZM130.2862548828125 627H127.2862548828125Q126.2862548828125 653 107.7862548828125 671.5Q89.2862548828125 690 63.2862548828125 690Q63.2862548828125 690 56.7862548828125 690.0Q50.2862548828125 690 50.2862548828125 690V700H130.2862548828125ZM234.6170654296875 73H237.6170654296875Q238.6170654296875 47 257.1170654296875 28.5Q275.6170654296875 10 301.6170654296875 10Q301.6170654296875 10 307.6170654296875 10.0Q313.6170654296875 10 314.6170654296875 10V0H234.6170654296875ZM234.6170654296875 627V700H314.6170654296875V690Q313.6170654296875 690 307.6170654296875 690.0Q301.6170654296875 690 301.6170654296875 690Q275.6170654296875 690 257.1170654296875 671.5Q238.6170654296875 653 237.6170654296875 627ZM604.2862548828125 73V0H524.2862548828125V10Q525.2862548828125 10 531.2862548828125 10.0Q537.2862548828125 10 537.2862548828125 10Q563.2862548828125 10 582.2862548828125 28.5Q601.2862548828125 47 601.2862548828125 73ZM604.2862548828125 627H601.2862548828125Q601.2862548828125 653 582.2862548828125 671.5Q563.2862548828125 690 537.2862548828125 690Q537.2862548828125 690 531.2862548828125 690.0Q525.2862548828125 690 524.2862548828125 690V700H604.2862548828125ZM708.6170654296875 73H711.6170654296875Q712.6170654296875 47 731.1170654296875 28.5Q749.6170654296875 10 775.6170654296875 10Q775.6170654296875 10 782.1170654296875 10.0Q788.6170654296875 10 788.6170654296875 10V0H708.6170654296875ZM708.6170654296875 627V700H788.6170654296875V690Q788.6170654296875 690 782.1170654296875 690.0Q775.6170654296875 690 775.6170654296875 690Q749.6170654296875 690 731.1170654296875 671.5Q712.6170654296875 653 711.6170654296875 627Z"/>
  <path class="ink" transform="translate(279.23,58.0) scale(0.052000,-0.052000)" d="M237.6170654296875 700V0H127.2862548828125V700ZM504.379150390625 37.475830078125 517.330810546875 0H234.6170654296875V37.475830078125ZM464.6170654296875 363.2379150390625V326.7620849609375H234.6170654296875V363.2379150390625ZM510.85498046875 700V662.524169921875H234.6170654296875V700ZM571.85498046875 184.6654052734375 520.330810546875 0H338.1412353515625L374.1412353515625 37.475830078125Q425.52227783203125 37.475830078125 461.61260986328125 55.59478759765625Q497.70294189453125 73.7137451171875 521.9408569335938 107.11355590820312Q546.1787719726562 140.51336669921875 561.9795156625601 184.6654052734375ZM464.6170654296875 328.7620849609375V246.572509765625H454.6170654296875V258.3345947265625Q454.6170654296875 287.07696533203125 435.2745056152344 306.75762939453125Q415.93194580078125 326.43829345703125 387.1895751953125 326.7620849609375V328.7620849609375ZM464.6170654296875 443.427490234375V361.2379150390625H387.1895751953125V363.2379150390625Q415.93194580078125 364.2379150390625 435.4364013671875 384.0804748535156Q454.94085693359375 403.92303466796875 454.6170654296875 432.6654052734375V443.427490234375ZM510.85498046875 665.524169921875V566.0966796875H500.85498046875V580.8587646484375Q500.85498046875 616.5152587890625 478.35052490234375 639.5197143554688Q455.8460693359375 662.524169921875 419.1895751953125 663.524169921875V665.524169921875ZM510.85498046875 718V689L388.85498046875 700Q410.85498046875 700 435.35498046875 703.0Q459.85498046875 706 480.85498046875 710.0Q501.85498046875 714 510.85498046875 718ZM130.2862548828125 73V0H50.2862548828125V10Q50.2862548828125 10 56.7862548828125 10.0Q63.2862548828125 10 63.2862548828125 10Q89.2862548828125 10 107.7862548828125 28.5Q126.2862548828125 47 127.2862548828125 73ZM130.2862548828125 627H127.2862548828125Q126.96246337890625 653 108.05858898162842 671.5Q89.15471458435059 690 63.2862548828125 690Q63.2862548828125 690 57.124359130859375 690.0Q50.96246337890625 690 50.96246337890625 690L50.2862548828125 700H130.2862548828125Z"/>
</svg>
