<svg xmlns="http://www.w3.org/2000/svg" viewBox="0 0 100 100" width="128" height="128"><path fill="#000000" fill-rule="nonzero" d="M15.543 36.386 L15.545 36.316 L15.646 34.261 L15.66 34.123 L15.957 32.122 L15.984 31.986 L16.475 30.023 L16.516 29.89 L17.197 27.986 L17.25 27.857 L18.115 26.029 L18.181 25.906 L19.221 24.171 L19.298 24.056 L20.503 22.431 L20.591 22.324 L21.949 20.825 L22.048 20.726 L23.546 19.368 L23.654 19.28 L25.279 18.075 L25.394 17.998 L27.129 16.958 L27.252 16.892 L29.08 16.027 L29.209 15.974 L31.113 15.293 L31.246 15.252 L33.208 14.761 L33.345 14.734 L35.346 14.437 L35.484 14.423 L37.539 14.322 L37.609 14.321 L60.619 14.321 L60.688 14.322 L62.743 14.423 L62.882 14.437 L64.882 14.734 L65.019 14.761 L66.981 15.252 L67.114 15.293 L69.018 15.974 L69.147 16.027 L70.975 16.892 L71.098 16.958 L72.833 17.998 L72.949 18.075 L74.573 19.28 L74.681 19.368 L76.18 20.726 L76.278 20.825 L77.636 22.324 L77.724 22.431 L78.929 24.056 L79.007 24.171 L80.047 25.906 L80.112 26.029 L80.977 27.857 L81.03 27.986 L81.712 29.89 L81.752 30.023 L82.244 31.986 L82.271 32.122 L82.567 34.123 L82.581 34.261 L82.682 36.316 L82.684 36.386 L82.684 44.861 L82.672 45.046 L82.635 45.227 L82.576 45.403 L82.494 45.569 L82.391 45.723 L82.269 45.862 L82.13 45.984 L81.976 46.087 L81.809 46.169 L81.634 46.229 L81.452 46.265 L81.267 46.277 L71.513 46.277 L71.328 46.265 L71.146 46.229 L70.971 46.169 L70.805 46.087 L70.651 45.984 L70.511 45.862 L70.389 45.723 L70.286 45.569 L70.204 45.403 L70.145 45.227 L70.109 45.046 L70.097 44.861 L70.097 40.787 L70.096 40.77 L70.096 40.743 L70.095 40.726 L70.033 39.46 L70.03 39.426 L70.025 39.373 L70.021 39.339 L69.839 38.115 L69.833 38.081 L69.823 38.029 L69.816 37.995 L69.515 36.796 L69.506 36.762 L69.49 36.712 L69.48 36.679 L69.063 35.514 L69.05 35.482 L69.03 35.433 L69.016 35.402 L68.487 34.284 L68.472 34.253 L68.447 34.206 L68.43 34.176 L67.794 33.115 L67.775 33.086 L67.746 33.042 L67.726 33.013 L66.989 32.02 L66.968 31.993 L66.935 31.952 L66.912 31.926 L66.081 31.009 L66.057 30.984 L66.02 30.947 L65.995 30.923 L65.079 30.092 L65.052 30.07 L65.012 30.036 L64.984 30.015 L63.991 29.278 L63.962 29.258 L63.919 29.229 L63.889 29.21 L62.829 28.574 L62.798 28.557 L62.752 28.533 L62.721 28.517 L61.603 27.988 L61.571 27.974 L61.522 27.954 L61.49 27.941 L60.325 27.525 L60.292 27.514 L60.242 27.499 L60.209 27.489 L59.009 27.189 L58.975 27.181 L58.923 27.171 L58.889 27.165 L57.666 26.983 L57.631 26.979 L57.579 26.974 L57.544 26.971 L56.278 26.909 L56.261 26.909 L56.235 26.908 L56.217 26.908 L42.01 26.908 L41.993 26.908 L41.966 26.909 L41.949 26.909 L40.683 26.971 L40.648 26.974 L40.596 26.979 L40.561 26.983 L39.338 27.165 L39.304 27.171 L39.252 27.181 L39.218 27.189 L38.019 27.489 L37.985 27.499 L37.935 27.514 L37.902 27.525 L36.737 27.941 L36.705 27.954 L36.656 27.974 L36.624 27.988 L35.506 28.517 L35.475 28.533 L35.429 28.557 L35.399 28.574 L34.338 29.21 L34.309 29.229 L34.265 29.258 L34.236 29.278 L33.243 30.015 L33.216 30.036 L33.175 30.07 L33.149 30.092 L32.232 30.923 L32.207 30.947 L32.17 30.984 L32.146 31.009 L31.315 31.926 L31.293 31.952 L31.259 31.993 L31.238 32.02 L30.501 33.013 L30.481 33.042 L30.452 33.086 L30.433 33.115 L29.797 34.176 L29.78 34.206 L29.755 34.253 L29.74 34.284 L29.211 35.402 L29.197 35.433 L29.177 35.482 L29.164 35.514 L28.748 36.679 L28.737 36.712 L28.721 36.762 L28.712 36.796 L28.412 37.995 L28.404 38.029 L28.394 38.081 L28.388 38.115 L28.206 39.339 L28.202 39.373 L28.197 39.426 L28.194 39.46 L28.132 40.726 L28.132 40.743 L28.131 40.77 L28.131 40.787 L28.131 59.191 L28.131 59.208 L28.132 59.234 L28.132 59.252 L28.194 60.518 L28.197 60.552 L28.202 60.605 L28.206 60.639 L28.388 61.862 L28.394 61.897 L28.404 61.948 L28.412 61.982 L28.712 63.182 L28.721 63.215 L28.737 63.266 L28.748 63.299 L29.164 64.463 L29.177 64.496 L29.197 64.544 L29.211 64.576 L29.74 65.694 L29.755 65.725 L29.78 65.772 L29.797 65.802 L30.433 66.863 L30.452 66.892 L30.481 66.936 L30.501 66.964 L31.238 67.958 L31.259 67.985 L31.293 68.026 L31.315 68.052 L32.146 68.968 L32.17 68.994 L32.207 69.031 L32.232 69.055 L33.149 69.885 L33.175 69.908 L33.216 69.941 L33.243 69.963 L34.236 70.7 L34.265 70.72 L34.309 70.749 L34.338 70.767 L35.399 71.403 L35.429 71.42 L35.475 71.445 L35.506 71.461 L35.597 71.504 L35.645 71.524 L35.694 71.543 L35.794 71.573 L35.82 71.579 L35.923 71.595 L35.976 71.598 L36.028 71.6 L50.362 71.6 L50.409 71.599 L50.456 71.596 L50.547 71.584 L50.571 71.579 L50.66 71.555 L50.683 71.547 L50.768 71.512 L50.79 71.501 L50.87 71.455 L50.89 71.442 L50.963 71.386 L50.981 71.37 L51.047 71.304 L51.062 71.286 L51.119 71.213 L51.132 71.193 L51.178 71.113 L51.189 71.091 L51.224 71.006 L51.232 70.983 L51.256 70.894 L51.261 70.871 L51.273 70.779 L51.276 70.732 L51.277 70.685 L51.277 57.852 L51.279 57.782 L51.301 57.331 L51.315 57.193 L51.376 56.781 L51.403 56.644 L51.504 56.24 L51.545 56.107 L51.685 55.715 L51.738 55.586 L51.916 55.21 L51.982 55.087 L52.196 54.73 L52.273 54.614 L52.522 54.279 L52.61 54.172 L52.89 53.863 L52.988 53.765 L53.297 53.485 L53.404 53.397 L53.739 53.149 L53.854 53.071 L54.212 52.857 L54.334 52.792 L54.711 52.613 L54.839 52.56 L55.232 52.42 L55.365 52.38 L55.769 52.278 L55.905 52.251 L56.317 52.19 L56.456 52.176 L56.872 52.156 L57.011 52.156 L57.427 52.176 L57.566 52.19 L57.978 52.251 L58.114 52.278 L58.518 52.38 L58.651 52.42 L59.044 52.56 L59.172 52.613 L59.549 52.792 L59.671 52.857 L60.029 53.071 L60.144 53.149 L60.479 53.397 L60.586 53.485 L60.895 53.765 L60.993 53.863 L61.273 54.172 L61.361 54.279 L61.61 54.614 L61.687 54.73 L61.901 55.087 L61.967 55.21 L62.145 55.586 L62.198 55.715 L62.338 56.107 L62.379 56.24 L62.48 56.644 L62.507 56.781 L62.568 57.193 L62.582 57.331 L62.604 57.782 L62.606 57.852 L62.606 69.932 L62.607 69.978 L62.61 70.025 L62.622 70.116 L62.627 70.139 L62.65 70.228 L62.658 70.251 L62.693 70.336 L62.703 70.357 L62.749 70.437 L62.762 70.456 L62.818 70.53 L62.833 70.547 L62.898 70.613 L62.915 70.629 L62.988 70.685 L63.008 70.698 L63.087 70.745 L63.108 70.755 L63.193 70.791 L63.215 70.799 L63.303 70.824 L63.327 70.829 L63.418 70.842 L63.441 70.843 L63.533 70.845 L63.557 70.843 L63.648 70.832 L63.671 70.828 L63.76 70.805 L63.783 70.798 L63.868 70.764 L63.89 70.754 L63.97 70.709 L64.009 70.684 L64.047 70.658 L64.984 69.963 L65.012 69.941 L65.052 69.908 L65.079 69.885 L65.995 69.055 L66.02 69.031 L66.057 68.994 L66.081 68.968 L66.912 68.052 L66.935 68.026 L66.968 67.985 L66.989 67.958 L67.726 66.964 L67.746 66.936 L67.775 66.892 L67.794 66.863 L68.402 65.848 L68.506 65.698 L68.628 65.563 L68.766 65.444 L68.919 65.344 L69.083 65.265 L69.256 65.207 L69.435 65.172 L69.617 65.16 L81.029 65.16 L81.215 65.173 L81.399 65.209 L81.576 65.27 L81.743 65.354 L81.898 65.458 L82.038 65.583 L82.16 65.724 L82.262 65.881 L82.343 66.049 L82.401 66.227 L82.435 66.411 L82.445 66.598 L82.43 66.784 L82.271 67.856 L82.244 67.992 L81.752 69.954 L81.712 70.087 L81.03 71.992 L80.977 72.12 L80.112 73.949 L80.047 74.071 L79.007 75.806 L78.929 75.922 L77.724 77.547 L77.636 77.654 L76.278 79.153 L76.18 79.251 L74.681 80.61 L74.573 80.698 L72.949 81.903 L72.833 81.98 L71.098 83.02 L70.975 83.086 L69.147 83.95 L69.018 84.004 L67.114 84.685 L66.981 84.725 L65.019 85.217 L64.882 85.244 L62.882 85.541 L62.743 85.554 L60.688 85.655 L60.619 85.657 L37.609 85.657 L37.539 85.655 L35.484 85.554 L35.346 85.541 L33.345 85.244 L33.208 85.217 L31.246 84.725 L31.113 84.685 L29.209 84.004 L29.08 83.95 L27.24 83.08 L27.178 83.049 L27.17 83.044 L27.131 83.025 L27.091 83.007 L27.01 82.975 L26.988 82.969 L26.904 82.948 L26.882 82.943 L26.796 82.933 L26.752 82.93 L26.708 82.929 L21.872 82.929 L21.802 82.927 L21.351 82.905 L21.213 82.891 L20.801 82.83 L20.665 82.803 L20.26 82.702 L20.127 82.661 L19.735 82.521 L19.607 82.468 L19.23 82.29 L19.107 82.224 L18.75 82.01 L18.634 81.933 L18.3 81.685 L18.192 81.596 L17.883 81.317 L17.785 81.218 L17.505 80.909 L17.417 80.802 L17.169 80.467 L17.092 80.352 L16.877 79.994 L16.812 79.872 L16.634 79.495 L16.581 79.367 L16.44 78.974 L16.4 78.841 L16.299 78.437 L16.271 78.301 L16.21 77.889 L16.197 77.75 L16.176 77.334 L16.176 77.195 L16.197 76.779 L16.21 76.641 L16.271 76.228 L16.299 76.092 L16.4 75.688 L16.44 75.555 L16.581 75.162 L16.634 75.034 L16.812 74.657 L16.877 74.535 L17.092 74.177 L17.169 74.062 L17.439 73.697 L17.461 73.666 L17.473 73.648 L17.521 73.573 L17.532 73.553 L17.569 73.473 L17.577 73.451 L17.605 73.367 L17.61 73.345 L17.627 73.257 L17.629 73.235 L17.635 73.146 L17.635 73.123 L17.629 73.035 L17.626 73.012 L17.609 72.925 L17.603 72.903 L17.576 72.818 L17.559 72.777 L17.541 72.736 L17.25 72.12 L17.197 71.992 L16.516 70.087 L16.475 69.954 L15.984 67.992 L15.957 67.856 L15.66 65.855 L15.646 65.717 L15.545 63.661 L15.543 63.592 Z"/></svg>
